#!OML:ASF H:\BabyWalks\Project 1\Capture day 1\Session 1\baby.ASF
:FULLY-SPECIFIED
:DEGREES
395
root -14.2313 15.9644 -2.19342 112.313 -85.0679 -130.697
lowerback 13.4299 0.0806516 1.05287
upperback 3.51461 0.124959 0.680878
thorax -3.82707 -0.0111384 0.101038
lowerneck -7.24322 -0.0867103 5.0597
upperneck 6.04336 -0.263193 -5.14725
head 3.26056 -0.216069 -2.63364
rclavicle 4.42296e-015 7.95139e-015
rhumerus 21.5879 -4.02784 -65.6667
rradius 67.5969
rwrist 20.842
rhand 22.6555 -23.973
rfingers 7.12502
rthumb 47.0004 -46.6391
lclavicle 4.42296e-015 7.95139e-015
lhumerus 21.1162 -0.712183 61.2116
lradius 73.5369
lwrist -6.32048
lhand 26.023 33.4681
lfingers 7.12502
lthumb 50.0987 54.6389
rfemur 2.2513 -11.0528 11.4255
rtibia 54.1673
rfoot -31.7848 -10.1084
rtoes -13.1061
lfemur 1.57994 12.1455 1.09622
ltibia 53.2021
lfoot -35.8041 -8.07578
ltoes -12.5538
396
root -14.2307 15.9694 -2.18291 112.393 -85.3099 -130.743
lowerback 13.3858 0.0396343 0.955683
upperback 3.51254 0.0548127 0.610001
thorax -3.80578 -0.0447393 0.0932476
lowerneck -7.24452 -0.0653419 5.05306
upperneck 6.04494 -0.234504 -5.13841
head 3.26294 -0.201661 -2.62802
rclavicle -4.34841e-015 2.50469e-014
rhumerus 21.5937 -4.0303 -65.6889
rradius 67.6089
rwrist 20.8851
rhand 22.6219 -23.9623
rfingers 7.12502
rthumb 46.9693 -46.642
lclavicle -4.34841e-015 2.50469e-014
lhumerus 21.1239 -0.721355 61.2337
lradius 73.5079
lwrist -6.3637
lhand 26.073 33.4377
lfingers 7.12502
lthumb 50.1445 54.5842
rfemur 2.28583 -11.1389 11.1073
rtibia 54.1276
rfoot -31.7712 -10.047
rtoes -13.0933
lfemur 1.54637 12.0504 0.740599
ltibia 53.145
lfoot -35.7711 -7.99316
ltoes -12.4958
397
root -14.2312 15.9716 -2.18003 112.443 -85.3544 -130.776
lowerback 13.2848 0.0277493 0.916918
upperback 3.56117 0.030986 0.617326
thorax -3.70006 -0.0564577 0.126399
lowerneck -7.25624 -0.0477057 5.07131
upperneck 6.00032 -0.21259 -5.16194
head 3.25149 -0.191417 -2.63783
rclavicle -1.49089e-015 1.19271e-014
rhumerus 21.6991 -4.04481 -65.7049
rradius 67.5815
rwrist 20.9037
rhand 22.5838 -23.9521
rfingers 7.12502
rthumb 46.9341 -46.6473
lclavicle -1.49089e-015 1.19271e-014
lhumerus 21.1654 -0.703155 61.2538
lradius 73.4953
lwrist -6.40506
lhand 26.1031 33.4292
lfingers 7.12502
lthumb 50.172 54.5612
rfemur 2.29598 -11.1446 11.0501
rtibia 54.0836
rfoot -31.7481 -10.0432
rtoes -13.1211
lfemur 1.54896 12.0426 0.672756
ltibia 53.0943
lfoot -35.759 -7.97377
ltoes -12.5198
398
root -14.2317 15.9742 -2.17875 112.544 -85.3615 -130.865
lowerback 13.0949 0.0248374 0.858763
upperback 3.6957 0.0123746 0.654212
thorax -3.4561 -0.0665754 0.200064
lowerneck -7.37401 -0.02016 5.09264
upperneck 5.91465 -0.181475 -5.20833
head 3.24722 -0.178576 -2.65645
rclavicle -4.12478e-015 -4.77083e-015
rhumerus 21.9254 -4.10056 -65.7265
rradius 67.5568
rwrist 20.912
rhand 22.5411 -23.9665
rfingers 7.12502
rthumb 46.8946 -46.679
lclavicle -4.12478e-015 -4.77083e-015
lhumerus 21.3454 -0.606512 61.2813
lradius 73.4557
lwrist -6.42523
lhand 26.1053 33.411
lfingers 7.12502
lthumb 50.174 54.5419
rfemur 2.2927 -11.1166 11.0503
rtibia 54.0469
rfoot -31.7296 -10.0461
rtoes -13.1801
lfemur 1.56066 12.0404 0.646815
ltibia 53.0411
lfoot -35.7223 -7.99017
ltoes -12.4326
399
root -14.232 15.9764 -2.17647 112.741 -85.424 -131.05
lowerback 13.069 0.0173305 0.796661
upperback 3.69018 -0.00552255 0.649254
thorax -3.44791 -0.0749565 0.23269
lowerneck -7.19815 -0.0275549 5.31562
upperneck 5.74857 -0.194759 -5.44383
head 3.15952 -0.187327 -2.77468
rclavicle 2.33572e-015 3.97569e-015
rhumerus 21.926 -4.09034 -65.7478
rradius 67.5499
rwrist 20.9667
rhand 22.5238 -23.9758
rfingers 7.12502
rthumb 46.8785 -46.6954
lclavicle 2.33572e-015 3.97569e-015
lhumerus 21.3172 -0.645795 61.2839
lradius 73.4467
lwrist -6.41747
lhand 26.0862 33.3556
lfingers 7.12502
lthumb 50.1565 54.4958
rfemur 2.29855 -11.1217 10.9691
rtibia 54.0154
rfoot -31.712 -10.0372
rtoes -13.1725
lfemur 1.55884 12.0339 0.553657
ltibia 53.0092
lfoot -35.6915 -7.98534
ltoes -12.3593
400
root -14.2331 15.978 -2.17501 112.658 -85.4246 -130.953
lowerback 13.0492 0.0169974 0.805856
upperback 3.68673 -0.00436661 0.655639
thorax -3.44077 -0.0742567 0.233929
lowerneck -7.21924 -0.0252268 5.33047
upperneck 5.77154 -0.19605 -5.40393
head 3.17114 -0.186184 -2.7645
rclavicle 6.21202e-015 -9.14409e-015
rhumerus 21.9124 -4.12401 -65.7596
rradius 67.5434
rwrist 20.9346
rhand 22.4856 -23.9987
rfingers 7.12502
rthumb 46.8432 -46.7337
lclavicle 6.21202e-015 -9.14409e-015
lhumerus 21.3289 -0.716482 61.2804
lradius 73.458
lwrist -6.40059
lhand 26.0855 33.365
lfingers 7.12502
lthumb 50.1559 54.5055
rfemur 2.31053 -11.1148 10.9751
rtibia 53.9759
rfoot -31.7033 -10.0445
rtoes -13.1538
lfemur 1.55296 12.0286 0.543812
ltibia 52.9882
lfoot -35.7057 -7.94998
ltoes -12.4857
401
root -14.2356 15.9801 -2.18005 112.726 -85.2757 -131.055
lowerback 13.0262 0.0372315 0.82649
upperback 3.70863 0.0262427 0.728499
thorax -3.40523 -0.0597278 0.293401
lowerneck -7.24328 -0.000744421 5.24648
upperneck 5.82483 -0.163828 -5.26526
head 3.19399 -0.1669 -2.70057
rclavicle 2.68359e-015 -2.62396e-014
rhumerus 21.9312 -4.11534 -65.7681
rradius 67.5363
rwrist 20.9129
rhand 22.4907 -24.0067
rfingers 7.12502
rthumb 46.8478 -46.7397
lclavicle 2.68359e-015 -2.62396e-014
lhumerus 21.3246 -0.743675 61.2987
lradius 73.4632
lwrist -6.42554
lhand 26.0882 33.359
lfingers 7.12502
lthumb 50.1583 54.4982
rfemur 2.33425 -10.9786 11.1915
rtibia 53.9354
rfoot -31.6833 -10.1116
rtoes -13.1053
lfemur 1.62208 12.0961 0.750122
ltibia 52.9743
lfoot -35.7147 -8.00635
ltoes -12.5278
402
root -14.2373 15.9817 -2.17858 112.292 -85.2317 -130.642
lowerback 13.0187 0.031778 0.879674
upperback 3.72343 0.0260163 0.758837
thorax -3.38558 -0.0603549 0.295036
lowerneck -7.2925 0.0116135 5.11024
upperneck 5.88623 -0.146909 -5.07758
head 3.22257 -0.154757 -2.61128
rclavicle 9.01985e-015 -7.15625e-015
rhumerus 21.9225 -4.13935 -65.7598
rradius 67.5237
rwrist 20.9076
rhand 22.5091 -23.9921
rfingers 7.12502
rthumb 46.8649 -46.7175
lclavicle 9.01985e-015 -7.15625e-015
lhumerus 21.3323 -0.813172 61.3132
lradius 73.4842
lwrist -6.44594
lhand 26.0453 33.4135
lfingers 7.12502
lthumb 50.1191 54.5734
rfemur 2.38766 -10.9732 11.2489
rtibia 53.8907
rfoot -31.6603 -10.1409
rtoes -13.1481
lfemur 1.65086 12.0862 0.818444
ltibia 52.9722
lfoot -35.7106 -8.04396
ltoes -12.4466
403
root -14.2369 15.9835 -2.17709 112.021 -85.2409 -130.35
lowerback 13.0091 0.0265871 0.8846
upperback 3.70823 0.021078 0.769988
thorax -3.3963 -0.0625358 0.30466
lowerneck -7.26712 0.00945611 5.1218
upperneck 5.87906 -0.150836 -5.06644
head 3.21496 -0.155703 -2.6093
rclavicle 4.84538e-015 -5.1684e-015
rhumerus 21.8984 -4.16674 -65.7761
rradius 67.5165
rwrist 20.89
rhand 22.5187 -24.0227
rfingers 7.12502
rthumb 46.8738 -46.7443
lclavicle 4.84538e-015 -5.1684e-015
lhumerus 21.3529 -0.901757 61.3186
lradius 73.4896
lwrist -6.44889
lhand 25.997 33.3802
lfingers 7.12502
lthumb 50.0749 54.5635
rfemur 2.39036 -10.9706 11.2603
rtibia 53.8503
rfoot -31.6594 -10.1353
rtoes -13.068
lfemur 1.61759 12.0564 0.799088
ltibia 52.97
lfoot -35.7116 -8.04862
ltoes -12.4184
404
root -14.2369 15.983 -2.17537 111.72 -85.2338 -130.048
lowerback 13.0005 0.0168752 0.896864
upperback 3.70533 0.0106455 0.790468
thorax -3.39464 -0.067739 0.320718
lowerneck -7.20867 0.00201439 5.1732
upperneck 5.84444 -0.162973 -5.08612
head 3.19167 -0.160664 -2.62483
rclavicle 1.3418e-015 -2.38542e-015
rhumerus 21.8992 -4.15193 -65.7587
rradius 67.5032
rwrist 20.8755
rhand 22.5044 -24.0237
rfingers 7.12502
rthumb 46.8606 -46.7511
lclavicle 1.3418e-015 -2.38542e-015
lhumerus 21.3431 -0.974084 61.315
lradius 73.509
lwrist -6.45172
lhand 25.99 33.3232
lfingers 7.12502
lthumb 50.0685 54.5098
rfemur 2.40668 -11.0091 11.2568
rtibia 53.8169
rfoot -31.6374 -10.0963
rtoes -13.0853
lfemur 1.60433 12.0388 0.808242
ltibia 52.9676
lfoot -35.6904 -8.07501
ltoes -12.3089
405
root -14.2391 15.9843 -2.17415 111.355 -85.2262 -129.701
lowerback 12.9918 0.00370329 0.898335
upperback 3.71086 -0.00610549 0.816077
thorax -3.38413 -0.0762151 0.349186
lowerneck -7.10202 -0.00484036 5.29309
upperneck 5.75128 -0.173282 -5.21113
head 3.14074 -0.166811 -2.68766
rclavicle 3.85145e-015 -9.34288e-015
rhumerus 21.9043 -4.11966 -65.7318
rradius 67.4971
rwrist 20.8576
rhand 22.4819 -24.0547
rfingers 7.12502
rthumb 46.8397 -46.7912
lclavicle 3.85145e-015 -9.34288e-015
lhumerus 21.3196 -1.04573 61.296
lradius 73.5447
lwrist -6.45076
lhand 25.9542 33.292
lfingers 7.12502
lthumb 50.0357 54.496
rfemur 2.46073 -11.0149 11.268
rtibia 53.7805
rfoot -31.6359 -10.0979
rtoes -13.0745
lfemur 1.63069 12.0134 0.826103
ltibia 52.9546
lfoot -35.695 -8.06264
ltoes -12.3682
406
root -14.2394 15.9872 -2.17248 111.309 -85.3097 -129.635
lowerback 12.984 0.00166764 0.825547
upperback 3.69914 -0.0176089 0.809219
thorax -3.39225 -0.0813617 0.38489
lowerneck -7.12978 -0.00647067 5.32386
upperneck 5.7742 -0.176971 -5.24369
head 3.15433 -0.169442 -2.70569
rclavicle 4.69629e-015 -2.32578e-014
rhumerus 21.8867 -4.1219 -65.7157
rradius 67.4793
rwrist 20.8595
rhand 22.4991 -24.0277
rfingers 7.12502
rthumb 46.8557 -46.7573
lclavicle 4.69629e-015 -2.32578e-014
lhumerus 21.3336 -1.11926 61.3185
lradius 73.5589
lwrist -6.47611
lhand 26.0123 33.2625
lfingers 7.12502
lthumb 50.0889 54.4385
rfemur 2.46691 -11.0186 11.1899
rtibia 53.7427
rfoot -31.6163 -10.1247
rtoes -13.0948
lfemur 1.60433 11.9781 0.71309
ltibia 52.9324
lfoot -35.6864 -8.04014
ltoes -12.427
407
root -14.2407 15.9885 -2.17072 111.006 -85.3252 -129.338
lowerback 12.9663 -0.00657312 0.809226
upperback 3.70969 -0.0305319 0.83099
thorax -3.37158 -0.0878953 0.418736
lowerneck -7.10983 0.00109346 5.26063
upperneck 5.75502 -0.165203 -5.1688
head 3.14331 -0.161993 -2.66676
rclavicle -1.9133e-015 -5.96354e-015
rhumerus 21.9156 -4.10827 -65.6961
rradius 67.4592
rwrist 20.8559
rhand 22.4544 -24.0329
rfingers 7.12502
rthumb 46.8143 -46.7805
lclavicle -1.9133e-015 -5.96354e-015
lhumerus 21.3477 -1.17488 61.3418
lradius 73.5697
lwrist -6.50259
lhand 26.019 33.2919
lfingers 7.12502
lthumb 50.0951 54.4646
rfemur 2.5098 -11.0375 11.1701
rtibia 53.7003
rfoot -31.6078 -10.1007
rtoes -13.0976
lfemur 1.62002 11.9468 0.694612
ltibia 52.9036
lfoot -35.6741 -8.03169
ltoes -12.3531
408
root -14.2419 15.9911 -2.17003 110.799 -85.2884 -129.141
lowerback 12.977 -0.00473636 0.83937
upperback 3.69858 -0.0226268 0.857431
thorax -3.38899 -0.0840538 0.428148
lowerneck -7.02774 -0.00957597 5.34706
upperneck 5.6924 -0.179638 -5.2634
head 3.10683 -0.169992 -2.71396
rclavicle -5.86415e-015 -8.94531e-015
rhumerus 21.8806 -4.09083 -65.6576
rradius 67.457
rwrist 20.852
rhand 22.4473 -24.0235
rfingers 7.12502
rthumb 46.8077 -46.774
lclavicle -5.86415e-015 -8.94531e-015
lhumerus 21.3547 -1.27173 61.3541
lradius 73.5834
lwrist -6.47058
lhand 26.0384 33.2579
lfingers 7.12502
lthumb 50.1127 54.4213
rfemur 2.53957 -10.9725 11.2484
rtibia 53.6554
rfoot -31.5888 -10.1635
rtoes -13.0829
lfemur 1.64961 11.9389 0.740396
ltibia 52.8705
lfoot -35.6569 -8.06625
ltoes -12.3167
409
root -14.2424 15.9942 -2.16852 110.736 -85.3336 -129.048
lowerback 12.9361 -0.0128529 0.786026
upperback 3.69003 -0.0397225 0.859831
thorax -3.37567 -0.0919721 0.463268
lowerneck -7.04652 0.00442457 5.28482
upperneck 5.73318 -0.158894 -5.19912
head 3.12453 -0.158843 -2.68015
rclavicle -3.97569e-016 8.34896e-015
rhumerus 21.8775 -4.05353 -65.651
rradius 67.4488
rwrist 20.8458
rhand 22.4234 -24.041
rfingers 7.12502
rthumb 46.7856 -46.8011
lclavicle -3.97569e-016 8.34896e-015
lhumerus 21.3382 -1.35036 61.3296
lradius 73.632
lwrist -6.39248
lhand 26.0539 33.3385
lfingers 7.12502
lthumb 50.127 54.4943
rfemur 2.53208 -10.9627 11.2165
rtibia 53.6112
rfoot -31.5611 -10.1717
rtoes -13.0474
lfemur 1.61671 11.9128 0.6655
ltibia 52.8385
lfoot -35.627 -8.05906
ltoes -12.304
